<mxfile host="app.diagrams.net" modified="2022-08-01T20:41:30.078Z" agent="5.0 (Windows NT 10.0; Win64; x64) AppleWebKit/537.36 (KHTML, like Gecko) Chrome/103.0.0.0 Safari/537.36" etag="do_sX5Nx_Xa9FjPCkSLn" version="20.2.2" type="github">
  <diagram id="Ea6Lsq4JAO7TBPF9YiFG" name="Page-1">
    <mxGraphModel dx="1822" dy="754" grid="1" gridSize="10" guides="1" tooltips="1" connect="1" arrows="1" fold="1" page="0" pageScale="1" pageWidth="827" pageHeight="1169" math="0" shadow="0">
      <root>
        <mxCell id="0" />
        <mxCell id="1" parent="0" />
        <mxCell id="tG4XBH5tmSFhMA75-p97-38" value="" style="rounded=0;whiteSpace=wrap;html=1;dashed=1;sketch=0;fontColor=#666666;strokeWidth=1;fillColor=default;strokeColor=none;" vertex="1" parent="1">
          <mxGeometry x="-100" y="110" width="620" height="660" as="geometry" />
        </mxCell>
        <mxCell id="tG4XBH5tmSFhMA75-p97-37" value="" style="rounded=0;whiteSpace=wrap;html=1;dashed=1;strokeWidth=1;fillColor=#f5f5f5;fontColor=#333333;strokeColor=#666666;" vertex="1" parent="1">
          <mxGeometry x="-90" y="570" width="460" height="140" as="geometry" />
        </mxCell>
        <mxCell id="tG4XBH5tmSFhMA75-p97-34" value="" style="rounded=0;whiteSpace=wrap;html=1;dashed=1;strokeWidth=1;fillColor=#f5f5f5;fontColor=#333333;strokeColor=#666666;" vertex="1" parent="1">
          <mxGeometry x="60" y="170" width="310" height="180" as="geometry" />
        </mxCell>
        <mxCell id="tG4XBH5tmSFhMA75-p97-32" value="" style="rounded=0;whiteSpace=wrap;html=1;dashed=1;strokeWidth=1;fillColor=#f5f5f5;fontColor=#333333;strokeColor=#666666;" vertex="1" parent="1">
          <mxGeometry x="60" y="360" width="310" height="200" as="geometry" />
        </mxCell>
        <mxCell id="tG4XBH5tmSFhMA75-p97-14" style="edgeStyle=orthogonalEdgeStyle;rounded=0;orthogonalLoop=1;jettySize=auto;html=1;exitX=0.5;exitY=1;exitDx=0;exitDy=0;entryX=0.5;entryY=0;entryDx=0;entryDy=0;" edge="1" parent="1" source="tG4XBH5tmSFhMA75-p97-1" target="tG4XBH5tmSFhMA75-p97-2">
          <mxGeometry relative="1" as="geometry" />
        </mxCell>
        <mxCell id="tG4XBH5tmSFhMA75-p97-1" value="Start" style="rounded=1;whiteSpace=wrap;html=1;" vertex="1" parent="1">
          <mxGeometry x="200" y="120" width="40" height="40" as="geometry" />
        </mxCell>
        <mxCell id="tG4XBH5tmSFhMA75-p97-15" style="edgeStyle=orthogonalEdgeStyle;rounded=0;orthogonalLoop=1;jettySize=auto;html=1;exitX=0.5;exitY=1;exitDx=0;exitDy=0;entryX=0.5;entryY=0;entryDx=0;entryDy=0;" edge="1" parent="1" source="tG4XBH5tmSFhMA75-p97-2" target="tG4XBH5tmSFhMA75-p97-3">
          <mxGeometry relative="1" as="geometry" />
        </mxCell>
        <mxCell id="tG4XBH5tmSFhMA75-p97-2" value="Data&amp;nbsp;Collection" style="shape=parallelogram;html=1;strokeWidth=1;perimeter=parallelogramPerimeter;whiteSpace=wrap;rounded=0;arcSize=12;size=0.09375;sketch=0;" vertex="1" parent="1">
          <mxGeometry x="160" y="180" width="120" height="40" as="geometry" />
        </mxCell>
        <mxCell id="tG4XBH5tmSFhMA75-p97-16" style="edgeStyle=orthogonalEdgeStyle;rounded=0;orthogonalLoop=1;jettySize=auto;html=1;exitX=0.5;exitY=1;exitDx=0;exitDy=0;entryX=0.5;entryY=0;entryDx=0;entryDy=0;" edge="1" parent="1" source="tG4XBH5tmSFhMA75-p97-3" target="tG4XBH5tmSFhMA75-p97-4">
          <mxGeometry relative="1" as="geometry" />
        </mxCell>
        <mxCell id="tG4XBH5tmSFhMA75-p97-3" value="Metrics Scaling" style="rounded=1;whiteSpace=wrap;html=1;absoluteArcSize=1;arcSize=0;strokeWidth=1;" vertex="1" parent="1">
          <mxGeometry x="160" y="240" width="120" height="40" as="geometry" />
        </mxCell>
        <mxCell id="tG4XBH5tmSFhMA75-p97-17" style="edgeStyle=orthogonalEdgeStyle;rounded=0;orthogonalLoop=1;jettySize=auto;html=1;exitX=0.5;exitY=1;exitDx=0;exitDy=0;entryX=0.5;entryY=0;entryDx=0;entryDy=0;" edge="1" parent="1" source="tG4XBH5tmSFhMA75-p97-4" target="tG4XBH5tmSFhMA75-p97-5">
          <mxGeometry relative="1" as="geometry" />
        </mxCell>
        <mxCell id="tG4XBH5tmSFhMA75-p97-23" style="edgeStyle=orthogonalEdgeStyle;rounded=0;orthogonalLoop=1;jettySize=auto;html=1;exitX=0;exitY=0.5;exitDx=0;exitDy=0;entryX=0.5;entryY=0;entryDx=0;entryDy=0;" edge="1" parent="1" source="tG4XBH5tmSFhMA75-p97-4" target="tG4XBH5tmSFhMA75-p97-12">
          <mxGeometry relative="1" as="geometry" />
        </mxCell>
        <mxCell id="tG4XBH5tmSFhMA75-p97-4" value="Features Evaluation" style="rounded=1;whiteSpace=wrap;html=1;absoluteArcSize=1;arcSize=0;strokeWidth=1;" vertex="1" parent="1">
          <mxGeometry x="160" y="300" width="120" height="40" as="geometry" />
        </mxCell>
        <mxCell id="tG4XBH5tmSFhMA75-p97-18" style="edgeStyle=orthogonalEdgeStyle;rounded=0;orthogonalLoop=1;jettySize=auto;html=1;exitX=0.5;exitY=1;exitDx=0;exitDy=0;entryX=0.5;entryY=0;entryDx=0;entryDy=0;" edge="1" parent="1" source="tG4XBH5tmSFhMA75-p97-5" target="tG4XBH5tmSFhMA75-p97-7">
          <mxGeometry relative="1" as="geometry" />
        </mxCell>
        <mxCell id="tG4XBH5tmSFhMA75-p97-5" value="Generalized Linear Model Selection" style="rounded=1;whiteSpace=wrap;html=1;absoluteArcSize=1;arcSize=0;strokeWidth=1;" vertex="1" parent="1">
          <mxGeometry x="160" y="370" width="120" height="40" as="geometry" />
        </mxCell>
        <mxCell id="tG4XBH5tmSFhMA75-p97-19" style="edgeStyle=orthogonalEdgeStyle;rounded=0;orthogonalLoop=1;jettySize=auto;html=1;exitX=0.5;exitY=1;exitDx=0;exitDy=0;entryX=0.5;entryY=0;entryDx=0;entryDy=0;" edge="1" parent="1" source="tG4XBH5tmSFhMA75-p97-7" target="tG4XBH5tmSFhMA75-p97-8">
          <mxGeometry relative="1" as="geometry">
            <Array as="points">
              <mxPoint x="220" y="490" />
              <mxPoint x="140" y="490" />
            </Array>
          </mxGeometry>
        </mxCell>
        <mxCell id="tG4XBH5tmSFhMA75-p97-20" style="edgeStyle=orthogonalEdgeStyle;rounded=0;orthogonalLoop=1;jettySize=auto;html=1;exitX=0.5;exitY=1;exitDx=0;exitDy=0;entryX=0.5;entryY=0;entryDx=0;entryDy=0;" edge="1" parent="1" source="tG4XBH5tmSFhMA75-p97-7" target="tG4XBH5tmSFhMA75-p97-9">
          <mxGeometry relative="1" as="geometry">
            <Array as="points">
              <mxPoint x="220" y="490" />
              <mxPoint x="300" y="490" />
            </Array>
          </mxGeometry>
        </mxCell>
        <mxCell id="tG4XBH5tmSFhMA75-p97-7" value="Pearson Correlation Analysis" style="rounded=1;whiteSpace=wrap;html=1;absoluteArcSize=1;arcSize=0;strokeWidth=1;" vertex="1" parent="1">
          <mxGeometry x="160" y="430" width="120" height="40" as="geometry" />
        </mxCell>
        <mxCell id="tG4XBH5tmSFhMA75-p97-21" style="edgeStyle=orthogonalEdgeStyle;rounded=0;orthogonalLoop=1;jettySize=auto;html=1;exitX=0.5;exitY=1;exitDx=0;exitDy=0;entryX=0.5;entryY=0;entryDx=0;entryDy=0;" edge="1" parent="1" source="tG4XBH5tmSFhMA75-p97-8" target="tG4XBH5tmSFhMA75-p97-10">
          <mxGeometry relative="1" as="geometry" />
        </mxCell>
        <mxCell id="tG4XBH5tmSFhMA75-p97-8" value="MLR Model Evaluation" style="rounded=1;whiteSpace=wrap;html=1;absoluteArcSize=1;arcSize=0;strokeWidth=1;" vertex="1" parent="1">
          <mxGeometry x="80" y="510" width="120" height="40" as="geometry" />
        </mxCell>
        <mxCell id="tG4XBH5tmSFhMA75-p97-22" style="edgeStyle=orthogonalEdgeStyle;rounded=0;orthogonalLoop=1;jettySize=auto;html=1;exitX=0.5;exitY=1;exitDx=0;exitDy=0;entryX=0.5;entryY=0;entryDx=0;entryDy=0;" edge="1" parent="1" source="tG4XBH5tmSFhMA75-p97-9" target="tG4XBH5tmSFhMA75-p97-11">
          <mxGeometry relative="1" as="geometry" />
        </mxCell>
        <mxCell id="tG4XBH5tmSFhMA75-p97-9" value="ANN Model Evaluation" style="rounded=1;whiteSpace=wrap;html=1;absoluteArcSize=1;arcSize=0;strokeWidth=1;" vertex="1" parent="1">
          <mxGeometry x="240" y="510" width="120" height="40" as="geometry" />
        </mxCell>
        <mxCell id="tG4XBH5tmSFhMA75-p97-25" style="edgeStyle=orthogonalEdgeStyle;rounded=0;orthogonalLoop=1;jettySize=auto;html=1;exitX=0.5;exitY=1;exitDx=0;exitDy=0;entryX=0.5;entryY=0;entryDx=0;entryDy=0;" edge="1" parent="1" source="tG4XBH5tmSFhMA75-p97-10" target="tG4XBH5tmSFhMA75-p97-13">
          <mxGeometry relative="1" as="geometry" />
        </mxCell>
        <mxCell id="tG4XBH5tmSFhMA75-p97-10" value="MLR Predictions" style="shape=parallelogram;html=1;strokeWidth=1;perimeter=parallelogramPerimeter;rounded=0;arcSize=12;size=0.09375;whiteSpace=wrap;" vertex="1" parent="1">
          <mxGeometry x="80" y="580" width="120" height="40" as="geometry" />
        </mxCell>
        <mxCell id="tG4XBH5tmSFhMA75-p97-26" style="edgeStyle=orthogonalEdgeStyle;rounded=0;orthogonalLoop=1;jettySize=auto;html=1;exitX=0.5;exitY=1;exitDx=0;exitDy=0;entryX=0.5;entryY=0;entryDx=0;entryDy=0;" edge="1" parent="1" source="tG4XBH5tmSFhMA75-p97-11" target="tG4XBH5tmSFhMA75-p97-13">
          <mxGeometry relative="1" as="geometry" />
        </mxCell>
        <mxCell id="tG4XBH5tmSFhMA75-p97-11" value="ANN Predictions" style="shape=parallelogram;html=1;strokeWidth=1;perimeter=parallelogramPerimeter;rounded=0;arcSize=12;size=0.09375;whiteSpace=wrap;" vertex="1" parent="1">
          <mxGeometry x="240" y="580" width="120" height="40" as="geometry" />
        </mxCell>
        <mxCell id="tG4XBH5tmSFhMA75-p97-24" style="edgeStyle=orthogonalEdgeStyle;rounded=0;orthogonalLoop=1;jettySize=auto;html=1;exitX=0.5;exitY=1;exitDx=0;exitDy=0;entryX=0.5;entryY=0;entryDx=0;entryDy=0;" edge="1" parent="1" source="tG4XBH5tmSFhMA75-p97-12" target="tG4XBH5tmSFhMA75-p97-13">
          <mxGeometry relative="1" as="geometry" />
        </mxCell>
        <mxCell id="tG4XBH5tmSFhMA75-p97-12" value="EVM Predictions" style="shape=parallelogram;html=1;strokeWidth=1;perimeter=parallelogramPerimeter;rounded=0;arcSize=12;size=0.09375;whiteSpace=wrap;" vertex="1" parent="1">
          <mxGeometry x="-80" y="580" width="120" height="40" as="geometry" />
        </mxCell>
        <mxCell id="tG4XBH5tmSFhMA75-p97-29" style="edgeStyle=orthogonalEdgeStyle;rounded=0;orthogonalLoop=1;jettySize=auto;html=1;exitX=0.5;exitY=1;exitDx=0;exitDy=0;entryX=0.5;entryY=0;entryDx=0;entryDy=0;" edge="1" parent="1" source="tG4XBH5tmSFhMA75-p97-13">
          <mxGeometry relative="1" as="geometry">
            <mxPoint x="140" y="720" as="targetPoint" />
          </mxGeometry>
        </mxCell>
        <mxCell id="tG4XBH5tmSFhMA75-p97-13" value="Comparative Analysis" style="rounded=1;whiteSpace=wrap;html=1;absoluteArcSize=1;arcSize=0;strokeWidth=1;" vertex="1" parent="1">
          <mxGeometry x="80" y="660" width="120" height="40" as="geometry" />
        </mxCell>
        <mxCell id="tG4XBH5tmSFhMA75-p97-28" value="End" style="rounded=1;whiteSpace=wrap;html=1;" vertex="1" parent="1">
          <mxGeometry x="120" y="720" width="40" height="40" as="geometry" />
        </mxCell>
        <mxCell id="tG4XBH5tmSFhMA75-p97-33" value="Regression Analysis" style="rounded=0;whiteSpace=wrap;html=1;dashed=1;strokeWidth=1;fillColor=none;fontColor=#666666;align=left;strokeColor=none;" vertex="1" parent="1">
          <mxGeometry x="380" y="440" width="120" height="40" as="geometry" />
        </mxCell>
        <mxCell id="tG4XBH5tmSFhMA75-p97-35" value="Features Preprocessing" style="rounded=0;whiteSpace=wrap;html=1;dashed=1;strokeWidth=1;fillColor=none;fontColor=#666666;align=left;strokeColor=none;" vertex="1" parent="1">
          <mxGeometry x="380" y="240" width="140" height="40" as="geometry" />
        </mxCell>
        <mxCell id="tG4XBH5tmSFhMA75-p97-36" value="Results" style="rounded=0;whiteSpace=wrap;html=1;dashed=1;strokeWidth=1;fillColor=none;fontColor=#666666;align=left;strokeColor=none;" vertex="1" parent="1">
          <mxGeometry x="380" y="620" width="120" height="40" as="geometry" />
        </mxCell>
      </root>
    </mxGraphModel>
  </diagram>
</mxfile>
